<svg xmlns="http://www.w3.org/2000/svg" version="1.1" viewBox="0.00 0.00 48.00 48.00" width="48.00" height="48.00">
<g stroke-width="2.00" fill="none" stroke-linecap="butt">
<path stroke="#457bc8" d="&#10;  M 29.06 48.00&#10;  Q 27.33 47.28 28.59 45.89&#10;  C 29.64 44.74 31.62 44.02 33.03 43.37&#10;  Q 34.46 42.71 35.60 41.51&#10;  C 37.67 39.34 40.29 37.56 41.40 34.65&#10;  Q 41.88 33.38 43.03 32.83&#10;  Q 43.41 32.64 43.17 32.30&#10;  C 42.62 31.52 42.33 30.55 41.70 29.84&#10;  Q 34.36 21.60 26.90 12.78"/>
<path stroke="#8fb0e1" d="&#10;  M 26.90 12.78&#10;  Q 24.26 12.29 21.52 12.71&#10;  Q 21.03 12.78 20.85 13.25&#10;  Q 16.84 23.70 12.83 34.09&#10;  Q 12.61 34.66 13.22 34.88"/>
<path stroke="#457bc8" d="&#10;  M 13.22 34.88&#10;  Q 12.88 35.52 13.53 36.22&#10;  Q 18.77 41.78 23.62 48.00"/>
<path stroke="#8caad8" d="&#10;  M 26.90 12.78&#10;  L 34.92 33.98&#10;  A 0.74 0.74 0.0 0 1 34.22 34.99&#10;  L 30.91 34.94&#10;  Q 30.25 34.93 30.04 34.30&#10;  L 28.95 30.98&#10;  Q 28.71 30.25 27.95 30.25&#10;  L 19.57 30.25&#10;  Q 19.08 30.25 18.90 30.71&#10;  L 17.47 34.43&#10;  Q 17.27 34.94 16.73 34.93&#10;  L 13.22 34.88"/>
<path stroke="#88a4cf" d="&#10;  M 20.84 26.01&#10;  A 0.32 0.32 0.0 0 0 21.14 26.43&#10;  L 26.57 26.43&#10;  A 0.32 0.32 0.0 0 0 26.87 26.00&#10;  L 24.14 17.91&#10;  A 0.32 0.32 0.0 0 0 23.54 17.91&#10;  L 20.84 26.01"/>
</g>
<path fill="#4881d1" d="&#10;  M 3.39 0.00&#10;  L 44.52 0.00&#10;  Q 47.08 1.08 48.00 3.91&#10;  L 48.00 43.96&#10;  Q 46.93 47.10 43.85 48.00&#10;  L 29.06 48.00&#10;  Q 27.33 47.28 28.59 45.89&#10;  C 29.64 44.74 31.62 44.02 33.03 43.37&#10;  Q 34.46 42.71 35.60 41.51&#10;  C 37.67 39.34 40.29 37.56 41.40 34.65&#10;  Q 41.88 33.38 43.03 32.83&#10;  Q 43.41 32.64 43.17 32.30&#10;  C 42.62 31.52 42.33 30.55 41.70 29.84&#10;  Q 34.36 21.60 26.90 12.78&#10;  Q 24.26 12.29 21.52 12.71&#10;  Q 21.03 12.78 20.85 13.25&#10;  Q 16.84 23.70 12.83 34.09&#10;  Q 12.61 34.66 13.22 34.88&#10;  Q 12.88 35.52 13.53 36.22&#10;  Q 18.77 41.78 23.62 48.00&#10;  L 3.80 48.00&#10;  Q 1.02 47.00 0.00 44.40&#10;  L 0.00 3.29&#10;  Q 1.11 0.98 3.39 0.00&#10;  Z"/>
<path fill="#d5dff1" d="&#10;  M 26.90 12.78&#10;  L 34.92 33.98&#10;  A 0.74 0.74 0.0 0 1 34.22 34.99&#10;  L 30.91 34.94&#10;  Q 30.25 34.93 30.04 34.30&#10;  L 28.95 30.98&#10;  Q 28.71 30.25 27.95 30.25&#10;  L 19.57 30.25&#10;  Q 19.08 30.25 18.90 30.71&#10;  L 17.47 34.43&#10;  Q 17.27 34.94 16.73 34.93&#10;  L 13.22 34.88&#10;  Q 12.61 34.66 12.83 34.09&#10;  Q 16.84 23.70 20.85 13.25&#10;  Q 21.03 12.78 21.52 12.71&#10;  Q 24.26 12.29 26.90 12.78&#10;  Z&#10;  M 20.84 26.01&#10;  A 0.32 0.32 0.0 0 0 21.14 26.43&#10;  L 26.57 26.43&#10;  A 0.32 0.32 0.0 0 0 26.87 26.00&#10;  L 24.14 17.91&#10;  A 0.32 0.32 0.0 0 0 23.54 17.91&#10;  L 20.84 26.01&#10;  Z"/>
<path fill="#4274bf" d="&#10;  M 26.90 12.78&#10;  Q 34.36 21.60 41.70 29.84&#10;  C 42.33 30.55 42.62 31.52 43.17 32.30&#10;  Q 43.41 32.64 43.03 32.83&#10;  Q 41.88 33.38 41.40 34.65&#10;  C 40.29 37.56 37.67 39.34 35.60 41.51&#10;  Q 34.46 42.71 33.03 43.37&#10;  C 31.62 44.02 29.64 44.74 28.59 45.89&#10;  Q 27.33 47.28 29.06 48.00&#10;  L 23.62 48.00&#10;  Q 18.77 41.78 13.53 36.22&#10;  Q 12.88 35.52 13.22 34.88&#10;  L 16.73 34.93&#10;  Q 17.27 34.94 17.47 34.43&#10;  L 18.90 30.71&#10;  Q 19.08 30.25 19.57 30.25&#10;  L 27.95 30.25&#10;  Q 28.71 30.25 28.95 30.98&#10;  L 30.04 34.30&#10;  Q 30.25 34.93 30.91 34.94&#10;  L 34.22 34.99&#10;  A 0.74 0.74 0.0 0 0 34.92 33.98&#10;  L 26.90 12.78&#10;  Z"/>
<path fill="#3b68ad" d="&#10;  M 20.84 26.01&#10;  L 23.54 17.91&#10;  A 0.32 0.32 0.0 0 1 24.14 17.91&#10;  L 26.87 26.00&#10;  A 0.32 0.32 0.0 0 1 26.57 26.43&#10;  L 21.14 26.43&#10;  A 0.32 0.32 0.0 0 1 20.84 26.01&#10;  Z"/>
</svg>