<?xml version="1.0" encoding="utf-8"?>
<!DOCTYPE svg PUBLIC "-//W3C//DTD SVG 20010904//EN" "http://www.w3.org/TR/2001/REC-SVG-20010904/DTD/svg10.dtd">
<svg version="1.0" xmlns="http://www.w3.org/2000/svg" width="50pt" height="50pt" viewBox="0 0 50 50" style="" preserveAspectRatio="xMidYMid meet">
<g fill="#4881D1FF" stroke="#4881D1FF">
<path d="M 2.655 2.829 C 1.228 4.406 1.000 7.493 1.000 25.272 C 1.000 45.441 1.048 45.920 3.223 47.443 C 5.052 48.725 8.941 49.000 25.223 49.000 C 43.667 49.000 45.135 48.865 47.000 47.000 C 48.865 45.135 49.000 43.667 49.000 25.223 C 49.000 8.941 48.725 5.052 47.443 3.223 C 45.920 1.047 45.447 1.000 25.098 1.000 C 6.229 1.000 4.157 1.169 2.655 2.829 M 28.588 16.493 C 28.932 17.864 29.610 18.741 30.095 18.441 C 30.580 18.141 30.748 18.494 30.468 19.224 C 30.187 19.954 31.092 23.344 32.479 26.756 C 33.866 30.168 35.000 33.644 35.000 34.480 C 35.000 36.919 32.062 36.230 30.818 33.500 C 29.830 31.332 29.033 31.000 24.815 31.000 C 20.546 31.000 19.834 31.306 19.000 33.500 C 18.418 35.031 17.264 36.000 16.025 36.000 C 14.911 36.000 14.000 35.814 14.000 35.586 C 14.000 35.358 15.587 30.970 17.526 25.836 C 19.465 20.701 21.251 15.938 21.494 15.250 C 21.738 14.563 23.293 14.000 24.950 14.000 C 27.327 14.000 28.094 14.526 28.588 16.493 "/></g>
<g fill="#D5DFF1FF" stroke="#D5DFF1FF">
<path d="M 18.136 24.509 C 15.861 30.289 14.000 35.239 14.000 35.509 C 14.000 35.779 14.911 36.000 16.025 36.000 C 17.264 36.000 18.418 35.031 19.000 33.500 C 19.834 31.306 20.546 31.000 24.815 31.000 C 29.033 31.000 29.830 31.332 30.818 33.500 C 32.007 36.110 35.000 36.961 35.000 34.690 C 35.000 33.969 33.835 30.481 32.411 26.940 C 30.987 23.398 29.391 19.038 28.864 17.250 C 28.077 14.579 27.404 14.000 25.089 14.000 C 22.440 14.000 22.024 14.629 18.136 24.509 M 26.551 22.468 C 28.587 27.340 28.401 28.000 25.000 28.000 C 23.147 28.000 22.000 27.483 22.000 26.649 C 22.000 24.922 24.051 19.000 24.649 19.000 C 24.898 19.000 25.754 20.561 26.551 22.468 "/></g>
<g fill="#4881D1FF" stroke="#4881D1FF">
<path d="M 23.093 22.162 C 22.487 23.901 22.196 25.529 22.447 25.780 C 22.698 26.031 23.207 25.025 23.578 23.545 C 24.016 21.801 24.596 21.196 25.226 21.826 C 26.582 23.182 25.257 26.779 23.203 27.320 C 22.266 27.566 22.963 27.820 24.750 27.884 C 26.538 27.948 28.000 27.536 28.000 26.968 C 28.000 25.596 25.226 19.000 24.649 19.000 C 24.400 19.000 23.700 20.423 23.093 22.162 "/></g>
<g fill="#467AC9FF" stroke="#467AC9FF">
<path d="M 23.184 24.496 C 22.556 25.873 22.453 27.000 22.954 27.000 C 23.938 27.000 25.460 23.127 24.754 22.420 C 24.518 22.185 23.811 23.118 23.184 24.496 "/></g>
<g fill="#487ECFFF" stroke="#487ECFFF">
<path d="M 24.549 24.300 C 24.594 27.213 24.670 27.289 25.398 25.149 C 25.839 23.856 25.816 22.416 25.349 21.949 C 24.882 21.482 24.522 22.540 24.549 24.300 "/></g>
</svg>
