<?xml version="1.0" standalone="no"?><!DOCTYPE svg PUBLIC "-//W3C//DTD SVG 1.1//EN" "http://www.w3.org/Graphics/SVG/1.1/DTD/svg11.dtd"><svg t="1731315194674" class="icon" viewBox="0 0 1024 1024" version="1.1" xmlns="http://www.w3.org/2000/svg" p-id="4443" width="48" height="48" xmlns:xlink="http://www.w3.org/1999/xlink"><path d="M950.857143 512q0 10.788571-0.530286 21.540571t-1.590857 21.467429q-1.042286 10.733714-2.633143 21.394286-1.572571 10.642286-3.675428 21.211428-2.102857 10.569143-4.717715 21.028572-2.614857 10.441143-5.741714 20.754285-3.145143 10.313143-6.765714 20.443429-3.620571 10.148571-7.753143 20.114286-4.114286 9.947429-8.722286 19.675428-4.608 9.746286-9.691428 19.236572-5.083429 9.508571-10.605715 18.761143-5.540571 9.234286-11.52 18.194285-5.997714 8.96-12.416 17.609143-6.418286 8.649143-13.257143 16.969143-6.838857 8.338286-14.08 16.310857-7.222857 7.990857-14.829714 15.616-7.625143 7.606857-15.616 14.848-7.972571 7.222857-16.310857 14.08-8.32 6.820571-16.969143 13.238857-8.649143 6.4-17.609143 12.397715-8.96 5.997714-18.212571 11.52-9.234286 5.540571-18.742857 10.624-9.508571 5.083429-19.236572 9.691428t-19.693714 8.722286q-9.947429 4.132571-20.096 7.753143-10.130286 3.620571-20.443429 6.765714-10.313143 3.108571-20.772571 5.741714-10.441143 2.614857-21.010286 4.717715-10.569143 2.102857-21.211428 3.675428-10.660571 1.590857-21.394286 2.633143-10.715429 1.060571-21.467429 1.590857Q522.770286 950.857143 512 950.857143q-10.788571 0-21.540571-0.530286t-21.467429-1.590857q-10.733714-1.042286-21.394286-2.633143-10.642286-1.572571-21.211428-3.675428-10.569143-2.102857-21.028572-4.717715-10.441143-2.614857-20.754285-5.741714-10.313143-3.145143-20.443429-6.765714-10.148571-3.620571-20.114286-7.753143-9.947429-4.114286-19.675428-8.722286-9.746286-4.608-19.254857-9.691428-9.508571-5.083429-18.742858-10.605715-9.234286-5.540571-18.194285-11.52-8.96-5.997714-17.609143-12.416-8.649143-6.418286-16.969143-13.257143-8.338286-6.820571-16.310857-14.08-7.990857-7.222857-15.616-14.829714-7.606857-7.625143-14.848-15.616-7.241143-7.972571-14.08-16.310857-6.820571-8.32-13.238857-16.969143-6.418286-8.649143-12.397715-17.609143-5.997714-8.96-11.52-18.194285-5.540571-9.252571-10.624-18.761143-5.083429-9.508571-9.691428-19.236572t-8.722286-19.693714q-4.132571-9.947429-7.753143-20.096-3.638857-10.130286-6.765714-20.443429-3.108571-10.313143-5.741714-20.772571-2.614857-10.441143-4.717715-21.010286-2.102857-10.569143-3.675428-21.211428-1.590857-10.660571-2.633143-21.394286-1.060571-10.715429-1.590857-21.467429Q73.142857 522.770286 73.142857 512q0-10.788571 0.530286-21.540571t1.590857-21.467429q1.042286-10.733714 2.633143-21.394286 1.572571-10.642286 3.675428-21.211428 2.102857-10.569143 4.717715-21.028572 2.614857-10.441143 5.741714-20.754285 3.126857-10.313143 6.765714-20.443429 3.620571-10.148571 7.753143-20.114286 4.114286-9.947429 8.722286-19.675428 4.608-9.746286 9.691428-19.236572 5.083429-9.508571 10.605715-18.761143 5.540571-9.234286 11.52-18.194285 5.997714-8.96 12.416-17.609143 6.4-8.649143 13.257143-16.969143 6.820571-8.338286 14.08-16.310857 7.222857-7.990857 14.829714-15.616 7.625143-7.606857 15.616-14.848 7.972571-7.222857 16.310857-14.08 8.32-6.820571 16.969143-13.238857 8.649143-6.418286 17.609143-12.397715 8.96-5.997714 18.194285-11.52 9.252571-5.540571 18.742858-10.624 9.508571-5.083429 19.254857-9.691428 9.728-4.608 19.693714-8.722286 9.947429-4.132571 20.096-7.753143 10.130286-3.638857 20.443429-6.765714 10.313143-3.108571 20.754285-5.741714 10.459429-2.614857 21.028572-4.717715 10.569143-2.102857 21.211428-3.675428 10.660571-1.590857 21.394286-2.633143 10.715429-1.060571 21.467429-1.590857Q501.229714 73.142857 512 73.142857q10.788571 0 21.540571 0.530286t21.467429 1.590857q10.733714 1.042286 21.394286 2.633143 10.642286 1.572571 21.211428 3.675428 10.569143 2.102857 21.028572 4.717715 10.441143 2.614857 20.754285 5.741714 10.313143 3.126857 20.443429 6.765714 10.148571 3.620571 20.114286 7.753143 9.947429 4.114286 19.675428 8.722286 9.746286 4.608 19.236572 9.691428 9.508571 5.083429 18.742857 10.605715 9.252571 5.540571 18.212571 11.52 8.96 5.997714 17.609143 12.416 8.649143 6.418286 16.969143 13.257143 8.338286 6.838857 16.310857 14.08 7.990857 7.222857 15.616 14.829714 7.606857 7.625143 14.848 15.616 7.222857 7.972571 14.08 16.310857 6.820571 8.32 13.238857 16.969143 6.4 8.649143 12.397715 17.609143 5.997714 8.96 11.52 18.194285 5.540571 9.252571 10.624 18.761143 5.083429 9.508571 9.691428 19.236572t8.722286 19.693714q4.132571 9.947429 7.753143 20.096 3.620571 10.130286 6.765714 20.443429 3.108571 10.313143 5.741714 20.772571 2.614857 10.441143 4.717715 21.010286 2.102857 10.569143 3.675428 21.211428 1.590857 10.660571 2.633143 21.394286 1.060571 10.715429 1.590857 21.467429Q950.857143 501.229714 950.857143 512z" fill="#1967D2" p-id="4444"></path><path d="M127.378286 723.492571l8.777143 15.250286C212.955429 865.92 352.548571 950.857143 512 950.857143c3.968 0 7.936 0 12.013714-0.091429l-7.003428-12.233143 193.517714-71.259428V616.502857H331.026286L138.038857 282.24A436.809143 436.809143 0 0 0 73.142857 512a436.48 436.48 0 0 0 54.235429 211.492571z" fill="#669DF6" p-id="4445"></path><path d="M898.614857 304.219429v-1.243429h-0.621714a413.074286 413.074286 0 0 0-12.032-20.790857l-12.013714 20.790857H512v313.472h180.973714L499.986286 950.802286c155.684571 4.077714 308.662857-75.008 392.045714-219.428572 78.884571-136.557714 76.068571-297.782857 6.582857-427.154285z" fill="#AECBFA" p-id="4446"></path><path d="M892.068571 292.571429C812.233143 154.221714 668.342857 75.867429 519.552 73.142857h-15.780571a435.913143 435.913143 0 0 0-211.163429 58.825143 436.352 436.352 0 0 0-154.752 150.473143l11.922286 20.571428h748.141714a521.654857 521.654857 0 0 0-5.851429-10.441142z" fill="#1967D2" p-id="4447"></path><path d="M720.969143 512q0 5.12-0.237714 10.24-0.256 5.12-0.768 10.24-0.493714 5.12-1.243429 10.185143-0.749714 5.065143-1.755429 10.093714-1.005714 5.046857-2.249142 10.020572t-2.742858 9.874285q-1.481143 4.918857-3.218285 9.746286-1.718857 4.827429-3.693715 9.563429-1.956571 4.754286-4.150857 9.380571-2.194286 4.644571-4.608 9.161143-2.413714 4.534857-5.065143 8.923428-2.633143 4.406857-5.485714 8.667429-2.852571 4.260571-5.906286 8.393143-3.053714 4.114286-6.308571 8.082286-3.254857 3.968-6.692571 7.771428-3.456 3.803429-7.076572 7.424-3.620571 3.620571-7.424 7.076572-3.803429 3.437714-7.771428 6.692571t-8.082286 6.308571q-4.132571 3.053714-8.393143 5.906286t-8.667429 5.485714q-4.388571 2.651429-8.923428 5.065143-4.516571 2.413714-9.142857 4.608-4.644571 2.194286-9.398857 4.150857-4.736 1.974857-9.563429 3.693715-4.827429 1.737143-9.746286 3.218285-4.900571 1.499429-9.874285 2.742858-4.973714 1.243429-10.020572 2.249142-5.028571 1.005714-10.093714 1.755429-5.083429 0.731429-10.185143 1.243429-5.12 0.512-10.24 0.768-5.12 0.237714-10.24 0.237714t-10.24-0.237714q-5.138286-0.256-10.24-0.768-5.12-0.493714-10.185143-1.243429-5.083429-0.749714-10.112-1.755429t-10.002286-2.249142q-4.973714-1.243429-9.874285-2.742858-4.937143-1.481143-9.746286-3.218285-4.827429-1.718857-9.581714-3.693715-4.736-1.956571-9.380572-4.150857-4.626286-2.194286-9.142857-4.608-4.534857-2.413714-8.941714-5.065143-4.388571-2.633143-8.667429-5.485714-4.260571-2.852571-8.374857-5.906286-4.132571-3.053714-8.082286-6.308571-3.968-3.254857-7.771428-6.692571-3.803429-3.456-7.424-7.076572-3.638857-3.620571-7.076572-7.424-3.456-3.803429-6.710857-7.771428t-6.308571-8.082286q-3.053714-4.132571-5.906286-8.393143t-5.485714-8.667429q-2.633143-4.388571-5.046857-8.923428-2.432-4.516571-4.608-9.142857-2.194286-4.644571-4.169143-9.398857-1.956571-4.736-3.693714-9.563429-1.718857-4.827429-3.218286-9.746286-1.481143-4.900571-2.742857-9.874285-1.225143-4.973714-2.230857-10.020572-1.005714-5.028571-1.755429-10.093714-0.749714-5.083429-1.261714-10.185143-0.493714-5.12-0.749715-10.24-0.256-5.12-0.256-10.24t0.256-10.24q0.256-5.138286 0.749715-10.24 0.512-5.12 1.261714-10.185143 0.749714-5.083429 1.755429-10.112t2.249142-10.002286q1.243429-4.973714 2.742858-9.874285 1.462857-4.937143 3.2-9.746286 1.737143-4.827429 3.693714-9.581714 1.974857-4.736 4.169143-9.362286 2.194286-4.644571 4.608-9.179429 2.413714-4.516571 5.046857-8.923428 2.633143-4.388571 5.485714-8.667429 2.852571-4.260571 5.906286-8.374857t6.308571-8.082286q3.254857-3.968 6.710857-7.771428 3.437714-3.803429 7.076572-7.424 3.620571-3.638857 7.424-7.076572 3.803429-3.456 7.771428-6.710857 3.949714-3.254857 8.082286-6.308571 4.114286-3.053714 8.374857-5.906286 4.278857-2.852571 8.667429-5.485714 4.406857-2.633143 8.923428-5.046857 4.534857-2.413714 9.161143-4.608 4.644571-2.194286 9.380572-4.169143 4.754286-1.956571 9.581714-3.693714 4.827429-1.718857 9.728-3.218286 4.918857-1.481143 9.874286-2.742857 4.992-1.225143 10.020571-2.230857 5.028571-1.005714 10.112-1.755429 5.065143-0.749714 10.185143-1.261714 5.101714-0.493714 10.24-0.731429 5.12-0.274286 10.24-0.274286t10.24 0.256q5.12 0.256 10.24 0.749715 5.12 0.512 10.185143 1.261714 5.065143 0.749714 10.093714 1.755429 5.046857 1.005714 10.020572 2.249142t9.874285 2.742858q4.918857 1.462857 9.746286 3.2 4.827429 1.737143 9.563429 3.693714 4.754286 1.974857 9.380571 4.169143 4.644571 2.194286 9.161143 4.608 4.534857 2.413714 8.923428 5.046857 4.406857 2.633143 8.667429 5.485714 4.260571 2.852571 8.393143 5.906286 4.114286 3.053714 8.082286 6.308571 3.968 3.254857 7.771428 6.710857 3.803429 3.437714 7.424 7.076572 3.620571 3.620571 7.076572 7.424 3.437714 3.803429 6.692571 7.771428t6.308571 8.082286q3.053714 4.114286 5.906286 8.374857 2.852571 4.278857 5.485714 8.667429 2.651429 4.406857 5.065143 8.923428 2.413714 4.534857 4.608 9.179429 2.194286 4.626286 4.150857 9.362286 1.974857 4.754286 3.693715 9.581714 1.737143 4.827429 3.218285 9.728 1.499429 4.918857 2.742858 9.874286 1.243429 4.992 2.249142 10.020571 1.005714 5.028571 1.755429 10.112 0.731429 5.065143 1.243429 10.185143 0.512 5.101714 0.768 10.24 0.237714 5.12 0.237714 10.24z" fill="#FEFEFD" p-id="4448"></path><path d="M679.186286 512q0 4.114286-0.201143 8.210286t-0.603429 8.173714q-0.402286 4.096-1.005714 8.155429t-1.408 8.082285q-0.804571 4.022857-1.792 8.009143-1.005714 3.986286-2.194286 7.899429-1.188571 3.931429-2.56 7.789714-1.389714 3.876571-2.962285 7.68-1.572571 3.766857-3.328 7.497143-1.755429 3.693714-3.693715 7.314286-1.92 3.620571-4.022857 7.131428-2.121143 3.529143-4.388571 6.948572-2.304 3.401143-4.754286 6.710857-2.432 3.291429-5.028571 6.454857-2.614857 3.181714-5.357715 6.217143-2.761143 3.053714-5.668571 5.942857-2.907429 2.907429-5.942857 5.668571-3.035429 2.742857-6.217143 5.357715-3.163429 2.596571-6.473143 5.046857-3.291429 2.450286-6.692571 4.717714-3.419429 2.285714-6.948572 4.388571-3.510857 2.121143-7.131428 4.059429-3.620571 1.92-7.314286 3.675429-3.730286 1.755429-7.515429 3.328t-7.661714 2.962285q-3.858286 1.371429-7.789714 2.56-3.931429 1.206857-7.899429 2.194286-3.986286 1.005714-8.009143 1.792-4.022857 0.804571-8.082285 1.408t-8.155429 1.005714q-4.077714 0.402286-8.173714 0.603429-4.096 0.201143-8.210286 0.201143-4.096 0-8.192-0.182857-4.114286-0.219429-8.192-0.621715-4.077714-0.402286-8.137143-1.005714t-8.100571-1.408q-4.022857-0.786286-7.990857-1.792-3.986286-0.987429-7.917715-2.194286-3.931429-1.188571-7.789714-2.56-3.858286-1.389714-7.661714-2.962285-3.785143-1.572571-7.497143-3.328-3.712-1.755429-7.314286-3.675429-3.638857-1.938286-7.149714-4.059429-3.529143-2.102857-6.948572-4.388571-3.401143-2.267429-6.692571-4.717714t-6.473143-5.046857q-3.181714-2.614857-6.217143-5.357715-3.035429-2.761143-5.942857-5.668571-2.907429-2.889143-5.668571-5.942857-2.742857-3.035429-5.339429-6.217143-2.614857-3.163429-5.046857-6.454857-2.450286-3.291429-4.736-6.710857t-4.388571-6.948572q-2.102857-3.510857-4.041143-7.131428t-3.693715-7.314286q-1.755429-3.730286-3.328-7.497143-1.572571-3.803429-2.944-7.68-1.389714-3.84-2.578285-7.789714-1.188571-3.913143-2.194286-7.899429-0.987429-3.986286-1.792-8.009143-0.804571-4.022857-1.408-8.082285t-1.005714-8.155429q-0.402286-4.077714-0.603429-8.173714-0.182857-4.096-0.182857-8.210286 0-4.096 0.182857-8.192 0.201143-4.114286 0.603429-8.192 0.402286-4.077714 1.005714-8.137143t1.408-8.082286q0.804571-4.022857 1.792-8.009142 1.005714-3.986286 2.194286-7.917715t2.56-7.789714q1.389714-3.858286 2.962285-7.661714 1.572571-3.785143 3.328-7.497143 1.755429-3.712 3.693715-7.314286 1.938286-3.638857 4.041143-7.149714 2.102857-3.529143 4.388571-6.948572 2.285714-3.401143 4.736-6.692571 2.432-3.291429 5.046857-6.473143 2.596571-3.163429 5.357714-6.217143 2.742857-3.035429 5.668572-5.942857 2.889143-2.889143 5.924571-5.668571 3.035429-2.742857 6.217143-5.339429 3.163429-2.614857 6.473143-5.046857 3.291429-2.450286 6.710857-4.736 3.401143-2.267429 6.930286-4.388571 3.510857-2.102857 7.131428-4.041143t7.332572-3.693715q3.712-1.755429 7.497143-3.328 3.803429-1.572571 7.661714-2.944 3.858286-1.389714 7.789714-2.56 3.931429-1.206857 7.917715-2.194285 3.968-1.005714 7.990857-1.810286 4.022857-0.804571 8.100571-1.408 4.059429-0.603429 8.137143-1.005714t8.192-0.603429q4.096-0.182857 8.192-0.182857 4.114286 0 8.210286 0.182857 4.096 0.201143 8.173714 0.603429 4.096 0.402286 8.155429 1.005714t8.082285 1.408q4.022857 0.804571 8.009143 1.792 3.968 1.005714 7.899429 2.194286t7.789714 2.56q3.876571 1.389714 7.661714 2.962285 3.785143 1.572571 7.497143 3.328 3.712 1.755429 7.332572 3.693715 3.620571 1.938286 7.131428 4.041143 3.529143 2.121143 6.948572 4.388571 3.401143 2.285714 6.692571 4.736 3.291429 2.432 6.473143 5.046857 3.181714 2.596571 6.217143 5.357714 3.035429 2.742857 5.942857 5.668572 2.907429 2.889143 5.668571 5.924571 2.742857 3.053714 5.357715 6.217143 2.596571 3.181714 5.046857 6.473143 2.432 3.291429 4.717714 6.710857 2.285714 3.401143 4.388571 6.930286 2.121143 3.510857 4.041143 7.131428 1.938286 3.620571 3.693715 7.332572 1.755429 3.712 3.328 7.497143 1.572571 3.803429 2.962285 7.68 1.371429 3.84 2.56 7.771428 1.188571 3.931429 2.194286 7.917715 0.987429 3.968 1.792 8.009142 0.804571 4.022857 1.408 8.082286t1.005714 8.137143q0.402286 4.077714 0.603429 8.192 0.201143 4.096 0.201143 8.192z" fill="#1A73E8" p-id="4449"></path></svg>