<?xml version="1.0" standalone="no"?><!DOCTYPE svg PUBLIC "-//W3C//DTD SVG 1.1//EN" "http://www.w3.org/Graphics/SVG/1.1/DTD/svg11.dtd"><svg t="1707723548117" class="icon" viewBox="0 0 1024 1024" version="1.1" xmlns="http://www.w3.org/2000/svg" p-id="66935" xmlns:xlink="http://www.w3.org/1999/xlink" width="48" height="48"><path d="M511.168 770.304a235.136 235.136 0 1 1 0-470.272 235.136 235.136 0 0 1 0 470.272m0-470.656a235.904 235.904 0 1 0 0.064 471.872 235.904 235.904 0 0 0 0-471.872" fill="#FFEA02" p-id="66936"></path><path d="M757.888 354.368a21.76 21.76 0 0 0 1.28-30.656l-21.056-22.528a21.44 21.44 0 0 0-30.464-1.216l-22.208 20.48a271.744 271.744 0 0 0-137.216-59.136V235.52a21.76 21.76 0 0 0-21.312-22.144h-30.72a21.76 21.76 0 0 0-21.312 22.144v26.048a275.584 275.584 0 0 0-136.064 58.752l-22.656-20.928a21.76 21.76 0 0 0-30.592 1.152l-20.992 22.592a21.632 21.632 0 0 0 1.152 30.592l22.016 20.608A275.776 275.776 0 0 0 512 810.496a275.52 275.52 0 0 0 275.52-275.84 274.56 274.56 0 0 0-51.328-160.256l21.76-20.032z" fill="#FFFFFF" p-id="66937"></path><path d="M512 810.496a275.84 275.84 0 0 1-224.256-436.224l-22.08-20.608a21.76 21.76 0 0 1-1.088-30.592l20.992-22.592a21.76 21.76 0 0 1 30.528-1.152l22.72 20.928a275.584 275.584 0 0 1 136.064-58.752V235.52a21.76 21.76 0 0 1 21.248-22.144h30.72a21.76 21.76 0 0 1 21.312 22.144v25.856a272 272 0 0 1 137.28 59.136l22.208-20.48a21.44 21.44 0 0 1 30.464 1.28l20.928 22.528a21.76 21.76 0 0 1-1.152 30.592l-21.696 20.096c32.32 45.184 51.392 100.48 51.392 160.192A275.52 275.52 0 0 1 512 810.496m180.736-735.168H331.328a256.64 256.64 0 0 0-255.872 255.872v361.6a256.64 256.64 0 0 0 255.872 255.872h361.536a256.64 256.64 0 0 0 255.872-255.872v-361.6a256.64 256.64 0 0 0-255.872-255.872" fill="#FFEA02" p-id="66938"></path><path d="M479.552 556.096a9.92 9.92 0 0 0-9.984 9.984c0 5.504 4.416 9.92 9.984 9.92a10.048 10.048 0 0 0 9.92-9.92 9.92 9.92 0 0 0-9.92-10.048" fill="#FFFFFF" p-id="66939"></path><path d="M511.232 614.208A79.872 79.872 0 1 1 511.36 454.4a79.872 79.872 0 0 1-0.128 159.808m0-239.68a160.256 160.256 0 1 0 0 320.448 160.256 160.256 0 0 0 0-320.448" fill="#7A808A" p-id="66940"></path><path d="M541.632 495.936a23.04 23.04 0 0 0-22.656 0 22.592 22.592 0 0 0 11.328 42.304 22.656 22.656 0 0 0 11.328-42.304" fill="#FFFFFF" p-id="66941"></path><path d="M511.232 695.04a160.192 160.192 0 1 1-0.128-320.448 160.192 160.192 0 0 1 0.128 320.384m-0.064-394.88a235.136 235.136 0 1 0 0 470.272 235.136 235.136 0 0 0 0-470.336" fill="#1A1C23" p-id="66942"></path><path d="M530.368 538.24a22.592 22.592 0 0 1-11.392-42.24 22.784 22.784 0 0 1 34.048 19.648 22.656 22.656 0 0 1-22.656 22.592m-50.816 37.824a9.984 9.984 0 0 1-9.984-9.984 9.984 9.984 0 1 1 19.84 0c0 5.44-4.48 9.984-9.856 9.984m31.68-121.6a79.872 79.872 0 1 0 0.064 159.744 79.872 79.872 0 0 0-0.064-159.744" fill="#1A1C23" p-id="66943"></path></svg>