<?xml version="1.0" standalone="no"?><!DOCTYPE svg PUBLIC "-//W3C//DTD SVG 1.1//EN" "http://www.w3.org/Graphics/SVG/1.1/DTD/svg11.dtd"><svg t="1707718258645" class="icon" viewBox="0 0 1024 1024" version="1.1" xmlns="http://www.w3.org/2000/svg" p-id="37506" xmlns:xlink="http://www.w3.org/1999/xlink" width="48" height="48"><path d="M768.284444 447.687111v91.050667A256.227556 256.227556 0 0 1 512 795.022222a256.199111 256.199111 0 0 1-235.861333-156.074666l-159.857778 62.208c59.079111 161.28 214.044444 276.394667 395.719111 276.394666 232.789333 0 421.518222-188.728889 421.518222-421.489778v-172.686222l-165.233778 64.284445zM256.142222 546.190222c-0.142222-2.531556-0.426667-4.920889-0.426666-7.452444V228.977778L512 329.614222l256.284444-100.636444v118.072889l165.233778-64.170667V46.449778h-199.281778L505.685333 147.057778 277.105778 46.449778h-186.595556v509.44c0 18.033778 1.251556 35.754667 3.498667 53.191111l162.133333-62.862222z" fill="#19C17B" p-id="37507"></path></svg>