<?xml version="1.0" standalone="no"?><!DOCTYPE svg PUBLIC "-//W3C//DTD SVG 1.1//EN" "http://www.w3.org/Graphics/SVG/1.1/DTD/svg11.dtd"><svg t="1707723706235" class="icon" viewBox="0 0 1024 1024" version="1.1" xmlns="http://www.w3.org/2000/svg" p-id="69123" xmlns:xlink="http://www.w3.org/1999/xlink" width="48" height="48"><path d="M631.6032 505.2416c50.3808-0.1024 100.7616 0 151.1424 0 9.216 0 16.9984 1.9456 18.6368 12.5952 1.7408 10.8544-4.9152 17.7152-17.92 17.8176-26.624 0.3072-53.3504 0.1024-79.9744 0.1024v-0.1024c-25.9072 0-51.8144 0.8192-77.7216-0.2048-46.8992-1.7408-74.0352-52.4288-49.664-92.4672 11.3664-18.432 28.5696-28.2624 50.0736-28.4672 52.6336-0.512 105.1648-0.3072 157.696-0.1024 11.776 0 17.6128 5.3248 17.8176 14.848 0.1024 10.0352-5.8368 15.4624-18.1248 15.5648-51.0976 0.1024-102.1952-0.1024-153.3952 0.2048-25.3952 0.1024-39.936 22.6304-28.672 44.2368 6.2464 11.9808 17.2032 15.9744 30.1056 15.9744z" fill="#C30D23" p-id="69124"></path><path d="M779.4688 611.1232c-50.7904 0-101.5808 0.4096-152.3712-0.1024-78.6432-0.8192-138.5472-64.4096-135.2704-142.848 2.8672-70.2464 60.8256-127.488 131.1744-128.9216 26.0096-0.512 51.9168-0.1024 77.824-0.1024v-0.1024c27.7504 0 55.5008-0.1024 83.2512 0 13.2096 0.1024 18.8416 4.5056 19.1488 14.4384 0.4096 10.1376-6.0416 15.9744-18.944 16.0768-52.224 0.1024-104.448-0.2048-156.672 0.2048-43.2128 0.2048-74.752 20.48-94.4128 58.368-35.2256 67.6864 14.6432 150.6304 91.4432 152.064 51.5072 1.024 103.0144 0.2048 154.5216 0.3072 17.408 0 24.064 4.3008 24.064 15.2576 0 11.264-6.4512 15.36-23.7568 15.36z" fill="#C30D23" p-id="69125"></path><path d="M393.6256 623.104l-1.1264-0.8192c-1.8432-1.3312-3.8912-2.6624-5.9392-3.7888 1.6384 1.2288 3.3792 2.4576 5.3248 3.4816 0.2048 0.1024 0.4096 0.3072 0.6144 0.3072 0.3072 0.3072 0.7168 0.6144 1.1264 0.8192z m0.3072 0.2048c-0.3072 0.512-0.6144 1.1264-0.9216 1.7408 3.6864 2.1504 7.3728 4.4032 11.0592 6.5536 3.4816 2.6624 6.9632 5.0176 12.288 5.12-2.56-4.608-6.2464-5.9392-9.6256-7.7824-3.6864-2.8672-6.2464-7.2704-11.3664-8.2944-0.512 0.8192-0.9216 1.7408-1.4336 2.6624z m235.8272 32.6656c49.5616-0.7168 99.2256-0.1024 148.992-0.1024 3.8912 0.1024 8.0896 0 11.8784 1.024 7.2704 1.7408 11.0592 6.8608 10.9568 14.336-0.1024 7.4752-3.584 12.6976-10.9568 14.336-3.8912 0.9216-7.9872 1.1264-11.9808 1.1264-88.064 0-176.0256 0.2048-263.9872-0.2048-107.4176-0.4096-188.3136-49.2544-248.0128-136.3968-7.8848-11.3664-14.336-23.7568-21.504-35.5328-4.608-7.5776-4.608-14.848 2.2528-20.6848 7.168-6.2464 14.6432-5.5296 21.2992 1.536 4.3008 4.3008 5.3248 10.5472 9.0112 15.1552 20.0704 33.5872 44.6464 63.2832 75.4688 87.6544 3.072 2.4576 6.5536 4.4032 9.8304 6.656 5.632 4.9152 15.1552 8.704 23.4496 13.5168-11.264-9.0112-16.2816-22.9376-25.3952-33.6896-13.9264-22.6304-27.9552-45.2608-39.936-69.0176-5.632-11.0592-4.4032-18.7392 3.9936-23.6544 7.9872-4.8128 16.5888-1.8432 22.3232 8.4992 11.9808 21.7088 23.6544 43.7248 38.1952 63.6928 16.0768 22.016 33.4848 43.008 58.4704 55.9104 10.9568 5.2224 24.6784 13.0048 36.5568 11.6736-2.56-3.7888-7.3728-8.2944-9.8304-12.4928-27.5456-32.256-46.6944-68.3008-53.6576-110.6944-20.2752-124.6208 73.1136-240.64 199.168-245.1456 55.5008-1.9456 111.0016-0.6144 166.5024-0.6144 12.6976 0.1024 18.7392 5.3248 18.8416 15.1552 0 10.0352-6.5536 15.4624-19.5584 15.5648-51.0976 0.1024-102.1952 0-153.3952 0-56.6272-0.1024-104.3456 20.7872-140.4928 64.2048-44.6464 53.3504-54.6816 114.3808-31.744 179.712 25.2928 71.8848 95.4368 119.5008 173.2608 118.4768z" fill="#C30D23" p-id="69126"></path><path d="M406.7328 628.9408c3.3792 1.8432 7.0656 3.1744 9.6256 7.7824-5.3248-0.1024-8.8064-2.4576-12.288-5.12 2.3552 0.512 3.072-0.512 2.6624-2.6624z" fill="#C30D23" p-id="69127"></path><path d="M404.0704 631.6032l2.6624-2.6624c0.4096 2.1504-0.3072 3.1744-2.6624 2.6624zM397.2096 625.3568c-1.1264-0.6144-2.2528-1.3312-3.2768-2.048 1.024 0.7168 2.1504 1.3312 3.2768 2.048z" fill="#C30D23" p-id="69128"></path><path d="M406.7328 628.9408l-2.6624 2.6624c-3.6864-2.1504-7.3728-4.4032-11.0592-6.5536 0.3072-0.6144 0.6144-1.2288 0.9216-1.7408 1.024 0.7168 2.1504 1.4336 3.2768 2.048-1.1264-0.7168-2.2528-1.3312-3.2768-2.048 0.512-0.9216 0.9216-1.8432 1.4336-2.6624 5.12 1.024 7.68 5.4272 11.3664 8.2944z" fill="#C30D23" p-id="69129"></path></svg>