<?xml version="1.0" standalone="no"?><!DOCTYPE svg PUBLIC "-//W3C//DTD SVG 1.1//EN" "http://www.w3.org/Graphics/SVG/1.1/DTD/svg11.dtd"><svg t="1707724150130" class="icon" viewBox="0 0 1024 1024" version="1.1" xmlns="http://www.w3.org/2000/svg" p-id="75756" xmlns:xlink="http://www.w3.org/1999/xlink" width="48" height="48"><path d="M571.946667 778.154667c7.914667-3.456 13.290667-2.474667 14.464-2.24 2.389333 0.469333 4.309333 1.258667 5.546666 1.856 3.925333 1.984 7.082667 4.458667 8.512 5.610666a48.128 48.128 0 0 0-9.813333-4.693333 10.901333 10.901333 0 0 0-14.421333 8.938667c-0.853333 9.621333-6.357333 67.157333-22.293334 108.309333l-8.746666 0.021333c2.794667-6.848 5.802667-15.424 8.32-25.6a3.2 3.2 0 0 0-0.725334-2.858666c-3.861333-4.437333-18.048-18.133333-40.256-10.88a14.08 14.08 0 0 1-8.725333 0c-22.229333-7.253333-36.394667 6.442667-40.277333 10.88a3.2 3.2 0 0 0-0.704 2.88c2.517333 10.154667 5.525333 18.730667 8.32 25.6l-8.746667-0.042667c-15.936-41.173333-21.44-98.709333-22.314667-108.501333a10.88 10.88 0 0 0-14.4-8.746667 48.234667 48.234667 0 0 0-9.834666 4.693333c1.429333-1.152 4.608-3.626667 8.533333-5.610666a21.76 21.76 0 0 1 5.546667-1.856l1.365333-0.213334a26.026667 26.026667 0 0 1 13.077333 2.453334c5.674667 2.496 7.552 5.034667 11.52 8.426666l0.362667 0.256 6.144 4.458667a82.048 82.048 0 0 0 43.221333 12.245333h6.165334a82.048 82.048 0 0 0 42.154666-12.245333l6.506667-4.714667 1.834667-1.642666c2.858667-2.602667 4.949333-4.693333 9.685333-6.784zM723.52 128A172.501333 172.501333 0 0 1 896 300.501333V723.413333a172.544 172.544 0 0 1-140.949333 169.6c6.293333-16.896 9.642667-34.773333 9.642666-53.226666 0-44.437333-18.709333-84.693333-50.858666-117.013334-22.826667-22.613333-53.205333-35.477333-53.205334-35.477333-17.514667-9.514667-22.186667-14.378667-22.186666-14.378667l-2.261334-2.133333c-2.368-2.197333-4.842667-4.266667-7.338666-6.336 6.826667-16.618667 13.013333-34.752 18.176-53.973333 10.88-40.32 15.637333-78.698667 14.72-109.824-1.216-40.021333-11.776-68.096-30.741334-73.024-33.706667-8.768-81.194667 58.88-106.048 151.082666-3.989333 14.72-7.104 29.184-9.472 43.136-1.856-0.064-3.690667-0.149333-5.568-0.149333l-1.749333 0.042667-1.728-0.042667c-1.877333 0-3.712 0.085333-5.568 0.149333a462.229333 462.229333 0 0 0-9.472-43.136c-24.853333-92.224-72.32-159.850667-106.048-151.082666-20.010667 5.205333-30.677333 36.181333-30.826667 79.786666-0.128 29.845333 4.693333 65.6 14.805334 103.061334 5.162667 19.221333 11.349333 37.354667 18.154666 53.973333-2.474667 2.069333-4.949333 4.138667-7.317333 6.357333l-2.282667 2.133334-0.277333 0.234666c-1.194667 1.130667-6.698667 5.866667-21.909333 14.122667 0 0-30.357333 12.864-53.205334 35.477333-32.128 32.32-50.837333 72.576-50.837333 117.013334 0 17.813333 3.114667 35.050667 8.96 51.456A172.522667 172.522667 0 0 1 128 723.434667V300.501333A172.501333 172.501333 0 0 1 300.501333 128h422.997334z m-189.546667 680.853333a84.330667 84.330667 0 0 1-22.165333 3.392 247.68 247.68 0 0 1-7.253333 0 84.330667 84.330667 0 0 1-22.144-3.392v28.416c0 5.12 4.16 9.28 9.258666 9.28h7.253334c5.12 0 9.258667-4.138667 9.258666-9.28 0 5.12 4.16 9.28 9.28 9.28h7.253334c5.12 0 9.258667-4.138667 9.258666-9.28z m-25.450666-76.373333c2.218667 0.085333 19.882667 1.024 23.530666 10.304a10.858667 10.858667 0 0 1 0.64 2.56c1.002667 7.893333-6.378667 14.997333-11.84 18.218667-1.834667 1.088-5.226667 2.752-10.026666 3.413333 0 0-1.493333 0.213333-2.645334 0.213333-1.130667 0-2.624-0.213333-2.624-0.213333a26.816 26.816 0 0 1-10.026666-3.413333c-5.461333-3.2-12.864-10.325333-11.84-18.24a10.624 10.624 0 0 1 0.64-2.56c3.626667-9.258667 21.312-10.197333 23.530666-10.304z m114.624-9.344c1.792-7.786667 16.426667-13.141333 33.706666-9.173333 17.28 3.925333 29.056 15.104 27.904 22.997333-1.258667 8.533333-18.666667 10.752-35.946666 6.826667-17.28-3.968-27.434667-12.885333-25.664-20.650667z m-263.616-9.173333c17.28-3.968 31.914667 1.386667 33.706666 9.173333 1.770667 7.765333-8.384 16.682667-25.664 20.629333-17.28 3.946667-34.688 1.749333-35.946666-6.805333-1.152-7.893333 10.624-19.072 27.904-23.018667z m50.496-19.413334c30.592-7.466667 56.170667-2.730667 67.136 13.866667 2.005333 3.050667 3.904 7.146667 4.821333 12.629333a4.928 4.928 0 0 1-0.64 3.093334c-1.194667 1.962667-4.032 2.858667-6.997333 2.112-3.882667-1.002667-5.546667-10.005333-5.546667-10.005334a25.621333 25.621333 0 0 0-2.752-6.954666c-5.994667-10.432-17.834667-13.589333-22.762667-14.464-13.973333-2.496-33.28-0.256-33.28-0.256z m129.194666 13.866667c10.944-16.597333 36.544-21.333333 67.136-13.866667 0 0-19.285333-2.218667-33.28 0.277334-4.906667 0.874667-16.746667 4.032-22.762666 14.464-1.344 2.346667-2.197333 4.714667-2.730667 6.954666 0 0-1.664 9.002667-5.546667 10.005334-2.986667 0.746667-5.802667-0.149333-7.018666-2.133334a4.949333 4.949333 0 0 1-0.618667-3.072c0.917333-5.482667 2.794667-9.578667 4.821333-12.629333z m-140.714666-233.066667l1.578666 0.362667c8.704 3.136 29.952 16.384 53.525334 72.106667a340.266667 340.266667 0 0 1 9.258666 28.608c0.085333 0.32 5.376 20.074667 12.053334 47.701333a173.610667 173.610667 0 0 0-64.341334 22.976c-10.026667-29.226667-16.810667-50.965333-16.917333-51.285333a336.725333 336.725333 0 0 1-7.488-29.098667c-9.92-59.562667 1.045333-81.813333 6.741333-89.002667a6.272 6.272 0 0 1 7.168-2.005333z m219.370666 0l1.578667 0.021334c1.536 0.234667 2.965333 1.045333 4.010667 2.346666 5.696 7.189333 16.64 29.44 6.741333 88.981334-1.685333 8-3.733333 16.256-6.165333 24.661333 0 0-0.426667 1.536-1.322667 4.458667-0.106667 0.32-6.912 22.037333-16.917333 51.285333a173.653333 173.653333 0 0 0-64.341334-22.976c6.677333-27.626667 11.946667-47.381333 12.053334-47.701333a338.048 338.048 0 0 1 9.258666-28.608c23.573333-55.722667 44.8-68.970667 53.525334-72.106667l1.578666-0.362667zM767.573333 192.277333c-6.826667 0-13.589333 1.685333-20.245333 5.034667-6.656 3.370667-14.037333 8.128-22.101333 14.293333a17.344 17.344 0 0 1 8.490666 3.946667c2.176 1.962667 3.712 4.693333 4.629334 8.149333v7.04l-25.898667 1.173334a15.786667 15.786667 0 0 0-2.176 0.170666 16.533333 16.533333 0 0 1-11.605333-2.688 111.36 111.36 0 0 0-10.496 15.786667c-2.410667 4.608-3.626667 8.96-3.626667 13.12 0 6.72 2.24 11.84 6.72 15.36 4.48 3.541333 10.752 4.074667 19.029333 3.626667l27.904-1.002667 0.149334 14.442667-32.448 1.002666a12.586667 12.586667 0 0 1-5.632-0.490666 5.568 5.568 0 0 1-3.285334-3.370667 112.746667 112.746667 0 0 0-12.437333 17.322667c-2.453333 5.269333-3.690667 9.856-3.690667 13.781333 0 5.930667 2.176 10.666667 6.549334 14.186667 4.373333 3.541333 10.666667 5.312 18.837333 5.312l64.874667-2.026667v14.442667l-64.853334 1.578666a14.698667 14.698667 0 0 1-5.546666-0.341333 7.466667 7.466667 0 0 1-4.053334-3.029333 129.664 129.664 0 0 0-17.28 22.016c-3.712 5.952-5.546667 10.88-5.546666 14.784 0 5.504 2.176 9.344 6.869333 13.034666 4.714667 3.690667 11.541333 5.546667 20.522667 5.546667l69.888-1.557333v36.650666a11.306667 11.306667 0 0 1-11.264 10.986667h-4.373334c0.277333-3.114667 0.213333-6.613333-0.426666-10.56l-0.085334-0.469333-0.064-0.469334a34.005333 34.005333 0 0 0-0.981333-3.989333l-0.064-0.213333a35.328 35.328 0 0 0-19.413333-20.693334c-21.802667-9.493333-40.213333 6.549333-47.786667 14.72-1.194667 1.429333-2.410667 2.816-3.648 4.373334 5.205333 1.941333 9.813333 6.272 13.76 13.013333 2.773333 5.034667 5.568 11.882667 8.341333 20.544a18.133333 18.133333 0 0 0 13.098667 12.117333 18.837333 18.837333 0 0 0 4.181333 0.533334h0.490667l0.32 0.021333c2.965333 0.064 11.626667-0.256 19.648-6.186667a30.293333 30.293333 0 0 0 6.144-5.653333l0.938667-1.28a29.653333 29.653333 0 0 0 1.749333-2.752c2.624 1.792 5.205333 4.010667 7.552 6.848 3.456 4.202667 5.290667 9.557333 5.290667 15.018667v5.290666a30.762667 30.762667 0 1 0 61.525333 0l0.021333-45.397333V401.92l5.184-0.170667c2.474667 2.816 4.48 3.626667 6.677334 4.949334a12.864 12.864 0 0 0 6.826666 2.026666c4.117333 0 7.658667-2.197333 10.56-6.570666 3.477333-4.8 5.226667-10.858667 5.226667-18.133334 0-7.616-1.664-14.570667-4.970667-20.842666-3.306667-6.272-8.426667-12.224-15.36-17.813334a5.632 5.632 0 0 1-3.114666 3.349334 13.738667 13.738667 0 0 1-5.12 0.853333h-5.909334v-14.805333h5.546667c9.194667-0.213333 15.978667-1.6 20.352-4.117334 4.373333-2.517333 6.549333-6.741333 6.549333-12.693333 0-5.376-2.176-11.264-6.549333-17.642667-4.373333-6.4-10.816-13.056-19.328-19.989333a16.256 16.256 0 0 1-5.973333 5.866667 20.672 20.672 0 0 1-8.832 2.346666h-24.362667v-13.589333l34.282667-1.514667c7.616 0 13.504-1.429333 17.664-4.288a13.930667 13.930667 0 0 0 6.208-12.181333c0-5.269333-1.834667-10.773333-5.546667-16.490667a87.424 87.424 0 0 0-16.128-18.645333c-1.472 1.344-2.986667 2.496-4.544 3.456a13.162667 13.162667 0 0 1-5.546667 1.749333l-26.389333 1.344v-12.16a17.92 17.92 0 0 0 4.053333-4.373333 7.637333 7.637333 0 0 0 1.322667-3.882667c0-3.904-2.858667-7.616-8.576-11.093333-6.165333-3.904-13.717333-4.586667-22.698667-4.586667zM264.661333 347.733333l-2.688 5.034667c-13.568 24.448-25.216 35.925333-32.874666 41.301333-13.802667 8.384-25.088-0.64-26.624-1.962666-7.530667-6.634667-13.589333-15.488-13.589334-15.488l0.896 2.730666c2.389333 7.850667 10.410667 29.653333 4.821334 51.818667-1.514667 6.058667-6.357333 13.376-9.365334 19.925333l-1.536 3.818667-0.170666 0.490667c-0.277333 0.853333-0.512 1.706667-0.725334 2.56-1.386667 5.226667-3.669333 16.384-1.557333 26.837333l0.874667 3.434667c1.621333 6.101333 5.525333 15.36 13.013333 22.485333 0.746667 0.768 1.557333 1.408 2.346667 2.090667l1.024 0.853333c5.653333 4.48 12.693333 7.253333 20.48 7.253333 18.282667 0 33.109333-14.826667 33.109333-33.130666 0-1.664-0.362667-3.84-0.810667-5.930667a126.784 126.784 0 0 0-4.672-13.866667l-0.725333-1.898666a122.901333 122.901333 0 0 1-4.010667-14.229334 97.109333 97.109333 0 0 1-1.173333-9.664 78.741333 78.741333 0 0 1 1.024-14.592c0.448-2.986667 1.045333-5.973333 1.770667-8.917333l21.162666-70.954667z m87.765334-154.688H312.96a12.864 12.864 0 0 1-0.725333 4.522667 12.928 12.928 0 0 1-3.072 4.266667c-3.968 3.968-13.418667 10.389333-28.330667 19.285333-14.912 8.874667-18.773333 9.685333-24.661333 8.746667 1.28 4.266667 5.034667 39.658667 7.658666 44.181333 2.624 4.522667 7.808 6.784 15.573334 6.784 4.138667 0 8.96-1.066667 14.506666-3.2 5.568-2.154667 11.733333-5.290667 18.56-9.408l0.853334-0.576 121.002666 0.32v171.349333c0 1.813333-0.426667 3.52-1.216 5.013334 15.402667 16.661333 30.506667 41.237333 43.477334 71.274666a30.72 30.72 0 0 0 12.586666-24.810666v-11.861334c0.213333-3.541333 0.106667-6.506667 0-8.32l-0.149333-41.173333v-157.952c0.341333-0.149333 0.704-0.277333 1.024-0.554667 3.285333-2.837333 6.442667-7.146667 8.96-11.029333 3.84-5.994667 4.544-13.013333 0-18.517333-10.709333-13.013333-31.189333-31.125333-31.189333-31.125334-2.517333 8.021333-12.778667 10.88-15.36 11.477334h-89.173334c1.92-2.218667 3.84-4.48 5.717334-6.805334a10.688 10.688 0 0 0 2.090666-4.288l0.512-2.218666a9.706667 9.706667 0 0 0 0.128-4.053334 12.266667 12.266667 0 0 0-4.885333-7.402666c-3.413333-2.624-8.213333-3.925333-14.4-3.925334z m-3.669334 83.562667h-28.053333a9.173333 9.173333 0 0 1-0.490667 3.2 9.130667 9.130667 0 0 1-2.197333 3.050667c-2.816 2.816-9.92 8.448-20.522667 14.762666-10.581333 6.293333-17.749333 8.469333-23.936 6.442667 0 0 7.018667 22.570667 11.861334 31.125333 1.856 3.2 5.546667 4.821333 11.072 4.821334 2.922667 0 6.357333-0.768 10.304-2.282667 3.946667-1.536 8.32-3.754667 13.184-6.677333h4.544v16.426666l-35.306667 1.536c-2.346667 0-4.266667-0.426667-5.738667-1.28a10.88 10.88 0 0 1-3.882666-4.288c-2.581333 3.946667-4.864 7.466667-6.826667 10.56-1.984 3.093333-3.626667 5.973333-4.992 8.682667a42.026667 42.026667 0 0 0-3.456 7.68c-0.746667 2.325333-1.109333 4.48-1.109333 6.506667a14.72 14.72 0 0 0 5.418666 11.818666c3.584 3.050667 8.725333 4.352 15.36 3.882667l40.533334-1.493333v42.474666h-16.554667l1.706667-22.805333c0-3.477333-1.557333-6.656-4.672-9.536a14.741333 14.741333 0 0 0-10.197334-4.309333c-3.285333 0-7.210667 1.749333-11.84 5.248-3.84 2.709333-9.002667 7.424-15.530666 14.186666a11.712 11.712 0 0 1 5.909333 5.824c1.130667 2.538667 1.685333 5.546667 1.685333 9.024v24.832a9.173333 9.173333 0 0 1-0.853333 4.394667 6.826667 6.826667 0 0 1-2.517333 2.538667c4.394667 10.133333 8.426667 17.493333 12.16 22.122666 4.053333 4.842667 8.384 7.253333 13.013333 7.253334 0.64 0 1.898667-0.234667 1.898667-0.234667s10.773333-2.496 10.922666-18.346667l40.917334-0.768c3.626667-21.333333 10.752-36.864 20.906666-45.354666v-38.250667h36.330667c6.08 0 10.666667-1.365333 13.76-4.138667a14.08 14.08 0 0 0 4.650667-11.050666c0-5.077333-1.642667-10.368-4.906667-15.893334-2.922667-5.504-7.530667-11.52-13.845333-18.069333a15.936 15.936 0 0 1-4.309334 3.882667 10.218667 10.218667 0 0 1-5.333333 1.365333h-26.346667v-16.618667l33.621334-1.002666c5.077333 0 9.045333-1.216 11.925333-3.626667a11.690667 11.690667 0 0 0 4.288-9.386667c0-3.712-1.578667-7.893333-4.714667-12.501333a99.434667 99.434667 0 0 0-13.184-15.530667l-2.944-2.858666c0.085333 3.712-2.666667 5.632-5.696 6.677333a26.325333 26.325333 0 0 1-8.085333 1.237333H361.173333l1.024-4.394666c0-2.794667-0.810667-6.208-3.221333-8.064-2.432-1.856-5.824-2.773333-10.24-2.773334z m280.661334-80.426667c-4.821333 0-10.304 2.069333-16.469334 6.208-5.056 3.477333-11.946667 9.258667-20.693333 17.301334a18.218667 18.218667 0 0 1 5.312 6.656 20.906667 20.906667 0 0 1 1.6 8.469333v30.592l-10.773333 0.341333 1.856-18.986666c0-6.165333-1.088-10.837333-3.264-14.037334-2.197333-3.2-5.482667-4.778667-9.834667-4.778666-5.056 0-10.602667 1.557333-16.64 4.693333-6.4 3.242667-13.12 8.064-20.181333 14.464a15.146667 15.146667 0 0 1 6.464 4.693333c1.408 1.92 2.112 4.608 2.112 8.064 0 14.229333-1.856 27.349333-5.546667 39.338667-3.264 10.986667-7.168 18.56-11.776 22.677333 7.168 11.669333 12.714667 19.669333 16.64 24.042667 4.821333 5.504 9.194667 8.234667 13.12 8.234667 4.266667 0 8.576-2.858667 12.949333-8.576 4.586667-6.613333 8.064-15.466667 10.410667-26.538667h14.464v40.362667l-31.445333 6.293333c-4.736 0.256-9.578667-1.28-14.506667-4.586667a109.525333 109.525333 0 0 0-12.373333 25.088c-2.56 7.893333-4.373333 16.256-3.136 24.96 0.64 4.608 2.496 8.469333 4.629333 11.690667l0.149333 0.213333c0.746667 1.130667 4.416 6.4 9.493334 10.581334l0.426666 0.341333 1.109334 0.896c0.853333 0.618667 1.664 1.173333 2.56 1.664a12.373333 12.373333 0 0 0 5.930666 1.685333c2.261333 0 4.352-2.133333 6.314667-6.4 1.962667-4.266667 5.696-7.616 11.178667-10.069333l19.669333-5.205333v13.504c11.584-8.256 23.018667-11.541333 33.493333-8.810667 7.808 2.026667 14.442667 6.976 19.797334 14.613333V402.773333s14.421333-3.008 16.298666-11.029333c0.106667-0.213333 0.277333-2.773333 0.277334-4.416l0.384-26.581333c0-3.242667 0.170667-6.293333 0.512-9.173334a18.944 18.944 0 0 1 3.2-8.32l-20.693334 4.373334v-31.296c7.850667 0.469333 13.866667-1.024 18.005334-4.437334 4.138667-3.413333 6.186667-8.832 6.186666-16.213333 0-4.821333-1.386667-10.197333-4.181333-16.149333-2.176-5.034667-11.776-20.48-11.776-20.48-1.216 3.178667-5.12 4.352-7.061333 4.757333l-1.152 0.192v-35.050667a17.408 17.408 0 0 0 3.84-4.117333 7.637333 7.637333 0 0 0 1.365333-4.117333c0-4.138667-3.093333-9.066667-9.258667-14.805334-6.72-6.485333-13.056-9.728-18.986666-9.728z m-222.954667 199.722667c-2.496 0-5.76 1.045333-9.813333 3.114667-4.053333 2.090667-8.96 4.992-14.677334 8.704a18.645333 18.645333 0 0 1 3.370667 4.650666 23.466667 23.466667 0 0 1 2.026667 5.653334v2.517333c10.197333-1.28 21.184 2.794667 32.256 11.306667v-15.509334l2.026666-5.909333c0-2.816-1.664-5.952-4.970666-9.386667-3.328-3.413333-6.741333-5.141333-10.24-5.141333z m-178.453333-94.656c-22.549333-9.834667-41.6 6.762667-49.408 15.232-1.258667 1.493333-2.517333 2.922667-3.797334 4.522667 5.397333 2.026667 10.133333 6.506667 14.229334 13.461333 2.901333 5.226667 5.781333 12.309333 8.64 21.269333a18.752 18.752 0 0 0 13.568 12.522667c1.621333 0.426667 3.050667 0.533333 4.330666 0.554667l0.341334 0.021333h1.578666c3.754667-0.042667 11.776-0.874667 19.242667-6.378667a31.36 31.36 0 0 0 6.336-5.845333l0.128-0.192c3.541333-4.416 8.576-13.610667 6.144-28.458667l-0.064-0.448-0.085333-0.512a35.456 35.456 0 0 0-1.002667-4.117333c0-0.085333-0.042667-0.149333-0.085333-0.213333a36.544 36.544 0 0 0-20.117334-21.397334z m0-87.957333c-22.549333-9.834667-41.6 6.762667-49.408 15.232-1.258667 1.493333-2.517333 2.922667-3.797334 4.522666 5.397333 2.026667 10.133333 6.506667 14.229334 13.461334 2.901333 5.226667 5.781333 12.309333 8.64 21.269333a18.773333 18.773333 0 0 0 13.568 12.522667 19.114667 19.114667 0 0 0 4.330666 0.554666h0.341334c0.106667 0.021333 0.213333 0.042667 0.490666 0.042667h1.088c3.754667-0.064 11.776-0.896 19.242667-6.4a31.36 31.36 0 0 0 6.336-5.845333l0.128-0.192c3.541333-4.416 8.576-13.610667 6.144-28.458667a119.808 119.808 0 0 0-0.064-0.448l-0.085333-0.512a35.776 35.776 0 0 0-1.002667-4.117333l-0.085333-0.213334a36.522667 36.522667 0 0 0-20.117334-21.397333z" fill="#FE0833" p-id="75757"></path></svg>