<?xml version="1.0" standalone="no"?><!DOCTYPE svg PUBLIC "-//W3C//DTD SVG 1.1//EN" "http://www.w3.org/Graphics/SVG/1.1/DTD/svg11.dtd"><svg t="1707709506539" class="icon" viewBox="0 0 1024 1024" version="1.1" xmlns="http://www.w3.org/2000/svg" p-id="22425" xmlns:xlink="http://www.w3.org/1999/xlink" width="48" height="48"><path d="M157.515279 0h708.969342A157.414887 157.414887 0 0 1 1023.9999 156.410965v711.17797A157.414887 157.414887 0 0 1 866.484621 1023.9999H157.515279A157.414887 157.414887 0 0 1 0 867.588935V156.410965A157.414887 157.414887 0 0 1 157.515279 0z" fill="#FFFFFF" p-id="22426"></path><path d="M906.741872 219.055665h10.74196c6.425097 0 12.850195 2.108235 19.1749-2.208627a2.108235 2.108235 0 0 0 2.208627-2.108236c0-36.341957-2.208627-70.274503 0-106.917636 0-12.850195-4.316862-17.066665-17.167057-17.066665h-789.082276c-14.95843 0-14.95843 6.324705-14.95843 19.1749v245.96076c0 51.300387 0 102.600774-2.208627 154.001554 4.316862 40.156859-4.21647 79.109012-8.533332 119.767831L81.317639 892.686971c-2.208627 17.066665 4.21647 21.383527 19.1749 21.383528a660.781112 660.781112 0 0 1 91.959207 8.533332c23.592155 4.316862 27.808625-4.316862 30.117644-25.70039 4.21647-38.450192 10.641568-79.109012 14.95843-119.767831v-12.749803A519.830537 519.830537 0 0 1 245.96076 682.6666v-2.108235c10.641568-145.468221 4.316862-293.044677 6.425098-440.520741 0-17.167057 4.21647-21.383527 23.491762-21.383528z" fill="#D30E0B" p-id="22427"></path><path d="M943.083829 445.741133c-2.108235-23.592155 0-49.192152 0-72.784307 0-36.341957 0-36.341957-34.233722-42.767054l-2.108235-2.108236v-2.108235h-2.108235v-8.533332a36.94431 36.94431 0 0 1 0-21.383527v-30.117645c-4.316862 0-8.533332-2.108235-12.850195-2.108235-34.233722-4.316862-68.467444 0-102.600774-2.108235-8.633725 0-10.74196 4.21647-10.74196 12.749803v38.550584c2.108235 12.850195-2.108235 19.275292-17.066665 17.066665-27.808625-2.108235-57.725485 0-85.534109 0-15.058822 0-19.275292 2.208627-19.275292 19.275293 2.108235 34.233722 0 66.258817 0 100.392147 0 12.850195 4.21647 17.167057 17.066665 17.167057h90.352932c12.850195 0 14.95843 4.21647 14.95843 14.95843 0 19.1749 6.425097 42.767055-2.108235 55.617249s-34.233722 8.533332-53.509015 10.641568c-21.383527 2.108235-44.87529 6.425097-66.258817 10.741959 8.533332 36.341957 17.066665 70.274503 25.599998 106.917637a28.109801 28.109801 0 0 1 6.425097 21.383527c2.208627 19.1749 10.74196 21.383527 27.808625 17.066665 14.95843-4.21647 32.125487-4.21647 47.083917-8.533332s17.066665 2.108235 17.066665 14.95843v64.351366c0 14.95843-2.108235 21.383527-19.1749 19.275292a527.259556 527.259556 0 0 0-57.725485 0c-12.850195 0-15.058822 4.21647-15.058822 14.95843 0 34.233722 2.208627 70.274503 0 104.809402 0 17.066665 6.425097 19.1749 21.383527 19.1749 57.825877 0 115.551361-2.108235 173.276846 0 19.275292 0 21.383527-4.21647 21.383528-23.491763v-421.647017c-4.316862-14.95843 2.108235-23.592155 17.066665-21.383528 18.773331 2.509804 20.881567-6.023529 20.881566-20.981958zM615.905822 785.769335q-22.487841 6.324705-19.275292-19.275292a336.112908 336.112908 0 0 0 2.208627-47.083917c0-10.641568-2.208627-23.491762 17.066665-21.383528 6.425097 0 6.425097-6.425097 6.425097-10.641567-2.108235-83.425874 2.108235-168.959983-2.108235-252.385858H622.431312l-2.108236-2.108235H325.069772c-19.275292 0-23.491762 6.425097-23.491762 23.491762v241.643898a73.687836 73.687836 0 0 0 21.383527 4.316863 7.830587 7.830587 0 0 1 2.108235 6.425097 206.20547 206.20547 0 0 1 4.316862 51.300387v4.316862c6.425097 44.87529 8.533332 36.341957-38.550584 38.450193h-2.108235c-6.425097 38.450192 0 77.000777 0 117.659596 0 8.533332 6.425097 6.425097 12.850195 6.425097l70.274503-6.425097c83.325482-6.425097 166.751356-12.850195 248.068995-19.275292 17.066665-2.108235 23.491762-6.425097 21.383527-23.491763a333.101144 333.101144 0 0 1 0-66.359209c4.21647-23.491762-2.208627-32.025095-25.700389-25.599997z m-209.518411-245.96076c0-8.533332 6.324705-6.425097 12.749803-6.425098h51.400779c51.300387 0 51.300387 0 49.192152 51.300387 0 8.533332-2.208627 12.850195-12.850195 12.850195h-87.742736c-4.21647 0-12.749803 0-12.749803-6.425097z m32.025095 230.901938a437.308192 437.308192 0 0 0-4.316862-55.61725c-2.108235-14.95843 4.316862-17.167057 17.167057-17.167057 42.767055 0 42.767055 0 42.767054 47.083917v14.95843c4.316862 23.491762-2.108235 34.233722-30.117644 34.233722-19.275292 0-25.70039-4.316862-25.700389-23.491762z m166.851748-508.988186H316.53644c-14.95843 0-19.275292 6.425097-19.275293 19.1749v83.526267c0 14.95843 4.316862 17.167057 17.167057 17.167057h291.137227c14.95843 0 17.066665-4.316862 17.066665-19.275292 0-27.808625-2.108235-55.617249 0-83.425875 1.807059-12.850195-2.409412-17.066665-17.367842-17.066665z" fill="#D30E0B" p-id="22428"></path></svg>