<?xml version="1.0" standalone="yes"?>
<svg xmlns="http://www.w3.org/2000/svg" width="48" height="48">
<path style="fill:#000000; stroke:none;" d="M0 0L0 5L5 1C3.23096 0.221062 1.96406 0.0875931 0 0z"/>
<path style="fill:#ffffff; stroke:none;" d="M5.09414 0.858025C0.858938 2.73649 0.0763723 6.8228 0.00462963 11C-0.126958 18.6616 -0.00344908 26.3371 0 34C0.0016041 37.5639 -0.436365 41.6588 1.89352 44.6559C4.40588 47.8876 8.2549 47.9749 12 47.9992C18.9993 48.0447 26.0005 48.0005 33 48C36.2027 47.9998 40.04 48.5091 42.9807 46.9722C47.3797 44.6733 47.9685 40.4707 47.9992 36C48.0497 28.6675 48.0033 21.3327 48 14C47.9984 10.4361 48.4364 6.34116 46.1065 3.34414C43.8314 0.417568 40.4445 0.0637894 37 0.00463104C30.0044 -0.115517 22.9967 0 16 0C12.5371 0 8.3436 -0.583233 5.09414 0.858025z"/>
<path style="fill:#000000; stroke:none;" d="M43 0L47 5C47.7789 3.23095 47.9124 1.96407 48 0L43 0z"/>
<path style="fill:#fce9e7; stroke:none;" d="M8 7L8 27C10.0866 22.0273 10.0866 11.9727 8 7z"/>
<path style="fill:#f07d70; stroke:none;" d="M9 7C17.3668 10.5108 30.9239 8 40 8C31.6332 4.48915 18.0762 7 9 7z"/>
<path style="fill:#f5a8a0; stroke:none;" d="M40 7L40 12C40.8299 9.96952 40.8299 9.03048 40 7z"/>
<path style="fill:#e83c29; stroke:none;" d="M9 8L8 40L12 40C13.1796 30.6664 13 21.4056 13 12L40 12L40 8L9 8z"/>
<path style="fill:#f7beb8; stroke:none;" d="M13 12L13 28C14.8123 23.6811 14.8123 16.3189 13 12M16 14C19.6975 15.5515 24.0168 15 28 15C24.3025 13.4485 19.9832 14 16 14M36 14C37.5061 14.683 38.3148 14.8259 40 15C38.494 14.317 37.6852 14.1741 36 14z"/>
<path style="fill:#f07d70; stroke:none;" d="M16 15L16 19L28 19C23.6847 17.1892 19.6868 18.5195 16 15z"/>
<path style="fill:#e83c29; stroke:none;" d="M17 15L17 18L28 18L28 15L17 15z"/>
<path style="fill:#fad4cf; stroke:none;" d="M28 15L28 19C28.7102 17.2405 28.7102 16.7595 28 15z"/>
<path style="fill:#f5a8a0; stroke:none;" d="M35 15C33.457 16.2667 32.9522 16.4892 31 17C33.1911 18.0301 36.1511 18.0535 35 15z"/>
<path style="fill:#e83c29; stroke:none;" d="M36 15C34.5537 17.2827 33.6894 17.5824 31 18L31 22L36 22L36 30L35 26L31 26C31.5765 29.4744 32.5256 30.4235 36 31L36 36L32 36L32 40L39 40C39 31.8343 40.418 22.9942 39 15L36 15z"/>
<path style="fill:#ed6759; stroke:none;" d="M39 15L39 18C39.6961 16.4463 39.6961 16.5537 39 15z"/>
<path style="fill:#f6b2aa; stroke:none;" d="M40 17L41 18L40 17z"/>
<path style="fill:#f7beb8; stroke:none;" d="M30 18L30 22C30.7102 20.2405 30.7102 19.7595 30 18z"/>
<path style="fill:#eb5241; stroke:none;" d="M40 18L40 22C40.7102 20.2405 40.7102 19.7595 40 18z"/>
<path style="fill:#f07d70; stroke:none;" d="M16 21C19.6975 22.5515 24.0168 22 28 22C24.3025 20.4485 19.9832 21 16 21z"/>
<path style="fill:#fad4cf; stroke:none;" d="M28 21L28 31C29.3457 27.793 29.3457 24.207 28 21z"/>
<path style="fill:#ed6759; stroke:none;" d="M16 22L16 31C17.2561 28.0059 17.2561 24.9941 16 22z"/>
<path style="fill:#e83c29; stroke:none;" d="M17 22C17.0042 28.3475 16.8175 33.7868 16 40L29 39C27.6379 33.1247 27.996 28.0403 28 22L17 22z"/>
<path style="fill:#f6b0a8; stroke:none;" d="M35 22C33.7741 24.0347 33.2974 24.3265 31 25L35 28C35.9511 25.7147 35.9511 24.2853 35 22z"/>
<path style="fill:#ed6759; stroke:none;" d="M39 22L39 40C40.9516 35.349 40.9516 26.651 39 22z"/>
<path style="fill:#eb5241; stroke:none;" d="M20 24C21.769 24.7789 23.0359 24.9124 25 25C23.231 24.2211 21.9641 24.0876 20 24z"/>
<path style="fill:#ed6759; stroke:none;" d="M19 25L19 28C19.6961 26.4463 19.6961 26.5537 19 25z"/>
<path style="fill:#ffffff; stroke:none;" d="M20 25L20 27L24 27L24 25L20 25z"/>
<path style="fill:#fad4cf; stroke:none;" d="M24 25C22.457 26.2667 21.9522 26.4892 20 27C22.1911 28.0301 25.1511 28.0535 24 25z"/>
<path style="fill:#fad2cd; stroke:none;" d="M30.3333 26.6667C30.2778 26.7222 30.2222 27.7778 30.6667 27.3333C30.7222 27.2778 30.7778 26.2222 30.3333 26.6667z"/>
<path style="fill:#f7bab3; stroke:none;" d="M8.33333 27.6667C8.27778 27.7222 8.22222 28.7778 8.66667 28.3333C8.72223 28.2778 8.77777 27.2222 8.33333 27.6667z"/>
<path style="fill:#ec6151; stroke:none;" d="M35.3333 28.6667C35.2778 28.7222 35.2222 29.7778 35.6667 29.3333C35.7222 29.2778 35.7778 28.2222 35.3333 28.6667z"/>
<path style="fill:#f29388; stroke:none;" d="M8 29L8 32C8.6961 30.4463 8.6961 30.5537 8 29z"/>
<path style="fill:#f3988d; stroke:none;" d="M31 30L32 31L31 30z"/>
<path style="fill:#f07c70; stroke:none;" d="M17 31L17 36C17.8299 33.9695 17.8299 33.0305 17 31z"/>
<path style="fill:#fef4f3; stroke:none;" d="M21 31L21 35L23 35L23 31L21 31z"/>
<path style="fill:#fad4cf; stroke:none;" d="M23 31L23 35C23.7102 33.2405 23.7102 32.7595 23 31z"/>
<path style="fill:#f29388; stroke:none;" d="M27 31L27 35C27.7102 33.2405 27.7102 32.7595 27 31z"/>
<path style="fill:#f8c5c0; stroke:none;" d="M32.6667 31.3333C32.2222 31.7778 33.2778 31.7222 33.3333 31.6667C33.7778 31.2222 32.7222 31.2778 32.6667 31.3333z"/>
<path style="fill:#f5a8a0; stroke:none;" d="M35 31L35 36C35.8299 33.9695 35.8299 33.0305 35 31z"/>
<path style="fill:#ed6657; stroke:none;" d="M8.33333 32.6667C8.27778 32.7222 8.22222 33.7778 8.66667 33.3333C8.72222 33.2778 8.77778 32.2222 8.33333 32.6667z"/>
<path style="fill:#f5a8a0; stroke:none;" d="M21 35C22.2484 35.6848 22.5484 35.7488 24 36C22.7516 35.3152 22.4516 35.2512 21 35z"/>
<path style="fill:#ed6253; stroke:none;" d="M27.6667 35.3333C27.2222 35.7778 28.2778 35.7222 28.3333 35.6667C28.7778 35.2222 27.7222 35.2778 27.6667 35.3333z"/>
<path style="fill:#f7beb8; stroke:none;" d="M29 35L29 39C29.7102 37.2405 29.7102 36.7595 29 35z"/>
<path style="fill:#fad4cf; stroke:none;" d="M7 36L7 40C7.71021 38.2405 7.71021 37.7595 7 36z"/>
<path style="fill:#f07d70; stroke:none;" d="M12 36L12 40C12.7102 38.2405 12.7102 37.7595 12 36z"/>
<path style="fill:#fad4cf; stroke:none;" d="M15 36L15 40C15.7102 38.2405 15.7102 37.7595 15 36M31 36L31 40C31.7102 38.2405 31.7102 37.7595 31 36z"/>
<path style="fill:#ee6c5e; stroke:none;" d="M21.6667 39.3333C21.2222 39.7778 22.2778 39.7222 22.3333 39.6667C22.7778 39.2222 21.7222 39.2778 21.6667 39.3333z"/>
<path style="fill:#f29388; stroke:none;" d="M23 39C24.2484 39.6848 24.5484 39.7488 26 40C24.7516 39.3152 24.4516 39.2512 23 39z"/>
<path style="fill:#f7beb8; stroke:none;" d="M26 39C27.2484 39.6848 27.5484 39.7488 29 40C27.7516 39.3152 27.4516 39.2512 26 39z"/>
<path style="fill:#f8c0ba; stroke:none;" d="M8 40C9.76904 40.7789 11.0359 40.9124 13 41C11.231 40.2211 9.96406 40.0876 8 40z"/>
<path style="fill:#fad4cf; stroke:none;" d="M16 40C17.2484 40.6848 17.5484 40.7488 19 41C17.7516 40.3152 17.4516 40.2512 16 40M32 40C34.6127 41.0977 37.1645 40.9928 40 41C37.3873 39.9023 34.8355 40.0072 32 40z"/>
<path style="fill:#000000; stroke:none;" d="M0 43L0 48L5 48C3.46848 46.0487 1.9513 44.5315 0 43M47 43L43 48L48 48C47.9124 46.0359 47.7789 44.769 47 43z"/>
</svg>
