<?xml version="1.0" standalone="no"?><!DOCTYPE svg PUBLIC "-//W3C//DTD SVG 1.1//EN" "http://www.w3.org/Graphics/SVG/1.1/DTD/svg11.dtd"><svg t="1707724737557" class="icon" viewBox="0 0 1024 1024" version="1.1" xmlns="http://www.w3.org/2000/svg" p-id="83223" xmlns:xlink="http://www.w3.org/1999/xlink" width="48" height="48"><path d="M227.566667 0h568.883333Q1024 0 1024 227.55v568.9q0 227.55-227.55 227.55H227.566667Q0 1024 0 796.45V227.55Q0 0 227.566667 0z" fill="#FFFFFF" p-id="83224"></path><path d="M677.2 486.383333c-56.583333-10.733333-111.666667 0-166.333333 13.666667-19.516667 4.95-30.733333 14.133333-34.2 35.116667-1.95 13.65-8.333333 26.816667-12.683334 40.483333-13.166667 43.333333-26.816667 86.816667-40.966666 133.65 23.333333 0 43.333333-0.5 62.916666 0.483333 11.216667 0.483333 16.1-2.933333 19.033334-14.15 12.683333-43.333333 26.816667-85.833333 39.5-129.25 3.416667-12.2 9.75-20 21.95-21.95 14.633333-2.433333 29.266667-5.85 43.9-5.366666 18.05 0.483333 25.366667 10.733333 21.466666 28.783333-5.366667 22.916667-12.2 45.35-19.033333 67.8-7.3 23.9-14.616667 47.8-22.433333 74.133333 24.4 0 46.333333 0.483333 67.8-0.483333 4.4 0 11.216667-5.366667 12.683333-9.75 15.616667-49.75 31.666667-100 45.85-150.233333q12.45-52.7-39.5-62.933334z" p-id="83225"></path><path d="M669.383333 223.483333c6.833333-12.2 0.5-18.533333-11.216666-17.066666-10.233333 0.966667-20.483333 4.866667-29.75 9.75-14.15 7.8-26.833333 18.05-40.966667 25.366666-4.883333 2.433333-13.666667 2.433333-18.55-0.483333-2.916667-1.966667-3.9-11.666667-1.933333-16.583333 2.916667-9.766667 9.266667-18.55 12.666666-28.783334 2.933333-8.783333 4.4-18.05 6.35-27.316666-9.75 1.466667-19.516667 2.433333-29.266666 4.883333-3.9 0.966667-7.8 4.383333-10.733334 7.3-14.15 13.666667-27.8 28.333333-42.916666 40.983333-6.35 5.366667-17.083333 5.366667-25.85 7.8-0.983333-8.783333-4.4-17.566667-2.933334-25.85 1.95-12.2 7.8-23.333333 10.733334-35.116666 3.416667-12.683333-3.9-20.483333-16.1-15.616667a96.2 96.2 0 0 0-33.166667 21.95c-12.683333 14.15-21.95 31.216667-34.15 45.85-3.9 4.883333-9.75 8.333333-15.6 11.666667l-17.566667-21.466667c-1.466667-5.366667-2.916667-11.216667-4.383333-16.666667-5.85 2.933333-12.683333 4.383333-17.066667 8.783334-5.366667 4.883333-9.266667 11.666667-12.2 18.05-6.35 13.166667-11.666667 27.316667-18.533333 40.483333-1.95 3.9-9.266667 8.333333-12.683333 7.316667-3.9-0.983333-7.8-7.316667-8.783334-11.666667-1.466667-7.316667-0.483333-15.6-0.483333-23.333333-1.95-0.983333-4.383333-1.466667-6.35-2.45-5.35 6.833333-12.183333 13.666667-16.083333 21.466666-11.233333 23.9-21.95 48.333333-31.216667 73.166667-24.4 63.883333-4.883333 115.1 58.516667 140.466667 106.333333 42.45 209.266667 27.316667 303.333333-35.116667C654.75 396.666667 665 349.316667 641.666667 291.766667c-5.85-14.15-3.9-25.85 5.85-37.55a186.5 186.5 0 0 0 21.95-30.733334z" fill="#D60000" p-id="83226"></path><path d="M317.216667 445.9c28.783333 18.05 60.483333 23.9 94.15 23.333333 51.2-0.983333 99.016667-12.683333 138.033333-48.783333 40-37.066667 35.116667-87.3-12.2-114.133333-20.483333-11.666667-44.383333-18.533333-67.8-21.466667-60-7.316667-116.083333 4.883333-162.416667 45.866667-41.95 36.566667-37.083333 85.35 10.233334 115.1z" fill="#FFFFFF" p-id="83227"></path><path d="M175.283333 536.666667c3.333333-2.933333 8.783333-4.4 13.65-5.366667 34.15-8.333333 66.35-2.45 96.1 14.633333 10.733333 6.333333 16.583333 5.85 19.5-7.316666s7.816667-25.85 12.683334-40.983334c-42.433333-16.583333-84.383333-18.05-126.816667-12.183333-34.633333 4.383333-66.333333 16.1-90.233333 42.433333-26.333333 29.266667-31.216667 75.116667 23.9 89.266667 20.483333 5.35 41.466667 7.316667 61.45 12.666667 6.833333 1.966667 12.683333 9.283333 18.55 13.666666-6.35 5.85-12.2 15.6-19.516667 16.583334-18.05 2.933333-37.066667 5.366667-54.633333 1.466666-23.416667-4.866667-45.85-15.15-71.216667-23.933333-5.366667 16.583333-10.733333 35.116667-16.583333 54.066667 43.416667 20 87.316667 20 130.733333 15.616666 38.533333-3.9 75.6-15.616667 100.966667-48.333333 29.266667-37.066667 17.55-71.666667-27.816667-84.383333-5.35-1.45-10.716667-2.433333-16.083333-3.416667-17.566667-3.333333-35.133333-6.333333-52.2-10.716667-4.383333-0.983333-11.216667-6.833333-11.216667-10.25 0.5-3.9 4.883333-9.75 8.783333-13.65z m171.666667-24.883334c-20.5 104.383333-51.666667 209.25-46.833333 320.466667 12.2-9.75 22.433333-20.483333 27.8-33.166667 38.05-93.166667 75.116667-187.3 112.683333-281.933333-34.633333-1.95-62.433333-3.333333-93.65-5.366667z m596.533333-24.866666c-49.266667-9.266667-98.533333-5.366667-147.3 3.9-3.916667 0.966667-9.266667 4.383333-10.733333 7.8-5.366667 13.65-9.266667 27.316667-14.15 44.383333 9.266667-2.433333 14.633333-4.883333 20.483333-5.366667 31.666667-2.433333 63.416667-6.333333 95.116667-5.85 22.933333 0.483333 28.783333 12.2 22.433333 34.15-6.833333 22.916667-13.65 46.333333-20.966666 69.25-1.95 5.366667-4.883333 12.683333-9.266667 15.133334-20.45 12.15-42.433333 17.033333-65.766667 10.683333-12.683333-3.333333-18.05-13.65-12.2-23.9 5.366667-9.75 14.15-19.016667 23.9-23.333333 11.216667-5.366667 25.366667-4.883333 37.55-8.783334a28.833333 28.833333 0 0 0 15.133334-12.2c4.383333-7.8 5.366667-17.55 8.783333-28.333333-47.816667 1.95-93.65 4.383333-132.683333 31.666667-12.683333 8.783333-23.333333 23.9-30.233334 38.533333-16.1 34.15-2.433333 62.933333 34.133334 70.233333 71.666667 13.666667 137.066667-3.416667 194.616666-47.8 4.4-3.416667 7.816667-9.75 9.283334-15.116666 9.266667-27.316667 18.033333-55.116667 25.85-82.916667 12.683333-41.466667-1.466667-64.383333-43.9-72.183333zM345 374.683333c11.666667-36.083333 54.616667-60.483333 91.666667-51.666666 25.35 5.85 41.45 27.316667 40.966666 54.15-0.983333 48.333333-58.533333 85.35-102.916666 66.333333-26.833333-11.216667-39.033333-39.516667-29.75-68.783333z" p-id="83228"></path><path d="M406 375.666667a10.25 10.25 0 1 0 10.233333-10.25 10.25 10.25 0 0 0-10.233333 10.25z" p-id="83229"></path><path d="M369.416667 410.3a22.433333 22.433333 0 1 0 11.216666-19.433333 22.433333 22.433333 0 0 0-11.216666 19.433333z" fill="#FFFFFF" p-id="83230"></path><path d="M797.183333 765.583333h45.75v101.666667q0 30-17.75 48.883333t-45 18.866667q-27.25 0-46-18.333333a60.45 60.45 0 0 1-18.75-44.883334q0-25.5 18.616667-44.5T778.183333 808.333333q3.75 0 12 0.75v50.5a17 17 0 0 0-11.25-4.5 16.666667 16.666667 0 0 0-12.133333 5.133334 17.133333 17.133333 0 0 0-5.133333 12.616666 16.516667 16.516667 0 0 0 5.25 12 17.366667 17.366667 0 0 0 12.75 5.25q17.5 0 17.5-24.25zM933.183333 835.583333V883.333333h-20.5v49h-45.75v-105.5q0-29 18.333334-47.116666T933.183333 761.666667v47.666666q-11.666667 0-16.133333 5.883334t-4.366667 20.366666z" p-id="83231"></path></svg>