<?xml version="1.0" encoding="UTF-8"?>
<!DOCTYPE svg PUBLIC "-//W3C//DTD SVG 1.1//EN" "http://www.w3.org/Graphics/SVG/1.1/DTD/svg11.dtd">
<svg xmlns="http://www.w3.org/2000/svg" version="1.1" width="48px" height="48px" style="shape-rendering:geometricPrecision; text-rendering:geometricPrecision; image-rendering:optimizeQuality; fill-rule:evenodd; clip-rule:evenodd" xmlns:xlink="http://www.w3.org/1999/xlink">
<g><path style="opacity:1" fill="#0bcf12" d="M 5.5,-0.5 C 17.5,-0.5 29.5,-0.5 41.5,-0.5C 43.8835,0.88507 45.5501,2.88507 46.5,5.5C 46.5,10.8333 46.5,16.1667 46.5,21.5C 44.5,21.5 42.5,21.5 40.5,21.5C 35.5152,18.3769 30.1818,17.7102 24.5,19.5C 26.4385,17.8372 28.7718,17.1706 31.5,17.5C 31.4506,14.9009 30.4506,12.7342 28.5,11C 22.3067,6.93063 15.9733,6.5973 9.5,10C 6.80017,11.8567 5.1335,14.3567 4.5,17.5C 3.56552,18.5676 3.23219,19.901 3.5,21.5C 2.5,21.5 1.5,21.5 0.5,21.5C 0.334072,16.4889 0.500738,11.4889 1,6.5C 2.0945,4.92209 2.92783,3.25542 3.5,1.5C 4.16667,0.833333 4.83333,0.166667 5.5,-0.5 Z"/></g>
<g><path style="opacity:1" fill="#0db813" d="M 3.5,1.5 C 2.92783,3.25542 2.0945,4.92209 1,6.5C 0.500738,11.4889 0.334072,16.4889 0.5,21.5C 1.5,21.5 2.5,21.5 3.5,21.5C 3.23219,19.901 3.56552,18.5676 4.5,17.5C 4.24534,22.2624 5.91201,26.2624 9.5,29.5C 8.67443,30.451 8.50776,31.451 9,32.5C 11.9036,30.7732 15.0703,30.1065 18.5,30.5C 17.6716,25.1481 19.6716,21.4815 24.5,19.5C 17.397,26.1646 18.0637,31.9979 26.5,37C 30.5548,37.2315 34.5548,37.7315 38.5,38.5C 39.7112,37.7261 39.7112,36.8928 38.5,36C 42.948,31.6969 43.6147,26.8635 40.5,21.5C 42.5,21.5 44.5,21.5 46.5,21.5C 46.5,16.1667 46.5,10.8333 46.5,5.5C 46.8333,5.5 47.1667,5.5 47.5,5.5C 47.5,17.5 47.5,29.5 47.5,41.5C 45.8333,43.8333 43.8333,45.8333 41.5,47.5C 29.5,47.5 17.5,47.5 5.5,47.5C 3.16667,45.8333 1.16667,43.8333 -0.5,41.5C -0.5,29.5 -0.5,17.5 -0.5,5.5C 0.472504,3.86076 1.80584,2.52743 3.5,1.5 Z"/></g>
<g><path style="opacity:1" fill="#fafdfa" d="M 40.5,21.5 C 43.6147,26.8635 42.948,31.6969 38.5,36C 39.7112,36.8928 39.7112,37.7261 38.5,38.5C 34.5548,37.7315 30.5548,37.2315 26.5,37C 18.0637,31.9979 17.397,26.1646 24.5,19.5C 30.1818,17.7102 35.5152,18.3769 40.5,21.5 Z"/></g>
<g><path style="opacity:1" fill="#39cd37" d="M 25.5,23.5 C 26.5,23.5 27.5,23.5 28.5,23.5C 27.7542,27.31 26.7542,27.31 25.5,23.5 Z"/></g>
<g><path style="opacity:1" fill="#3acd39" d="M 33.5,23.5 C 34.5,23.5 35.5,23.5 36.5,23.5C 36.5,24.5 36.5,25.5 36.5,26.5C 35.5,26.5 34.5,26.5 33.5,26.5C 33.5,25.5 33.5,24.5 33.5,23.5 Z"/></g>
<g><path style="opacity:1" fill="#f9fdf9" d="M 24.5,19.5 C 19.6716,21.4815 17.6716,25.1481 18.5,30.5C 15.0703,30.1065 11.9036,30.7732 9,32.5C 8.50776,31.451 8.67443,30.451 9.5,29.5C 5.91201,26.2624 4.24534,22.2624 4.5,17.5C 5.1335,14.3567 6.80017,11.8567 9.5,10C 15.9733,6.5973 22.3067,6.93063 28.5,11C 30.4506,12.7342 31.4506,14.9009 31.5,17.5C 28.7718,17.1706 26.4385,17.8372 24.5,19.5 Z"/></g>
<g><path style="opacity:1" fill="#35d234" d="M 21.5,13.5 C 22.5,13.5 23.5,13.5 24.5,13.5C 24.5,14.8333 24.5,16.1667 24.5,17.5C 23.5,17.5 22.5,17.5 21.5,17.5C 21.5,16.1667 21.5,14.8333 21.5,13.5 Z"/></g>
<g><path style="opacity:1" fill="#28d22f" d="M 12.5,13.5 C 15.8606,14.2032 16.1939,15.5365 13.5,17.5C 11.3576,16.5629 11.0243,15.2296 12.5,13.5 Z"/></g>
</svg>
